<svg xmlns="http://www.w3.org/2000/svg" width="2135.475" height="272.251" viewBox="0 0 1601.606 204.188"><mask id="b"><g clip-path="url(#a)"><path transform="matrix(1 0 0 -1 .796 203.48)" d="M0 202.667h317.334V0H0v202.667z"/></g>&quot;/&gt;</mask><clipPath id="a"><path transform="matrix(1 0 0 -1 -159.204 641.813)" d="M0 0h1920v1080H0z"/></clipPath><g mask="url(#b)"><clipPath id="c"><path transform="matrix(1 0 0 -1 -159.204 641.813)" d="M0 0h1920v1080H0z"/></clipPath><g clip-path="url(#c)" fill="#fcca59"><path d="M90.187 192.98c-14.669 18.218-80.542 6.895-88.25-31.851-5.152-25.897 7.432-70.05 29.18-71.382 33.94-2.116 75.077 83.33 59.031 103.272l.04-.039zM138.246 189.728c-23.007-38.747 91.043-207.76 146.062-187.191 26.389 9.873 38.816 63.115 31.973 100.765-16.99 93.517-158.411 119.61-178.075 86.426h.04z"/></g></g><path d="M487.38 166.15c-.48 3.025-2.4 5.566-5.16 6.776-6.001 2.662-12.842 3.872-19.563 3.872-28.803 0-49.085-18.15-49.085-47.914 0-33.274 23.523-60.256 58.926-60.256 9.121 0 17.762 1.936 24.123 4.72 3.84 1.693 6.12 5.928 5.28 10.163l-1.92 11.01c-2.823 3.608-7.74-.16-15.115-1.309-7.45-1.16-14.75-2.458-24.584 0-14.75 4.917-18.548 17.039-18.548 35.672 0 12.463 7.842 23.33 20.923 23.33 2.52 0 9.917 0 17.292-2.458 7.376 0 10.071.907 8.991 7.199l-1.56 9.317v-.121zM527.646 191.341l5.731-9.75c3.704-6.352 5.114-13.776 3.88-21.022l-9.082-54.388c-.705-4.205 2.469-8.051 6.701-8.051h10.846c3.35 0 6.26 2.504 6.789 5.904l2.645 17.712c.97 6.53 9.61 8.14 12.697 2.325l11.991-22.274c1.235-2.236 3.527-3.578 5.996-3.578h10.316c5.29 0 8.553 5.815 5.908 10.466l-52.286 89.813c-1.235 2.147-3.44 3.399-5.908 3.399h-10.404c-5.29 0-8.553-5.815-5.82-10.466v-.09zM644.802 174.367H628.58c-5.29 0-9.259-4.83-8.377-10.109l16.4-94.643c.618-3.399 3.527-5.904 6.878-5.904h12.08c4.32 0 7.67 4.026 6.877 8.32l-2.998 17.264c-.882 5.278 4.056 9.393 9.082 7.872 2.38-.715 4.938-1.162 7.671-1.162 18.604 0 28.039 14.67 28.039 32.83 0 25.852-16.136 47.142-39.942 47.142-8.377 0-15.607-3.578-18.428-7.872l-.97 6.083-.089.179zm5.732-33.098c-1.058 6.261 3.703 11.986 9.875 11.986h.176c9.876 0 16.93-9.034 16.93-21.648 0-7.514-3.88-12.97-11.375-12.97-4.408 0-7.935 1.878-10.669 4.651a10.775 10.775 0 0 0-2.91 5.725l-2.027 12.166v.09zM765.545 144.199c-8.112 0-8.64 12.344-.617 12.881 3.086.18 10.493 0 14.196-.447 2.204-.268 4.232-.984 6.437-1.431 4.144-.984 8.023 2.773 7.23 7.156l-1.235 6.977c-.352 2.058-1.675 3.758-3.527 4.563-6.524 2.952-14.46 4.204-23.013 4.204-22.836 0-36.768-13.597-36.768-34.53 0-24.689 17.106-45.442 42.94-45.442 19.663 0 30.332 12.255 30.332 31.845v3.22c-.353 6.263-5.555 11.093-11.639 11.093h-24.247l-.089-.09zm-2.557-14.85h15.519c6.436 0 3.791-10.913-8.818-10.913-3.88 0-6.965 1.52-9.434 4.025-2.469 2.505-.794 6.799 2.733 6.799v.09zM966.661 178.923h-8.2c-5.555 0-9.787-5.1-8.817-10.646l14.99-86.413c.617-3.757 3.879-6.53 7.67-6.53h13.314c3.351 0 5.908 3.131 5.29 6.44 4.233-4.293 11.199-8.14 19.31-8.14 18.605 0 28.04 14.671 28.04 32.83 0 25.853-16.136 47.143-39.943 47.143-8.2 0-15.342-3.4-18.251-7.604 0-.09-.177 0-.265 0l-4.32 25.316c-.706 4.383-4.497 7.514-8.818 7.514v.09zm17.988-60.293c-1.058 6.351 3.703 12.166 10.051 12.166 9.876 0 16.93-9.035 16.93-21.648 0-7.514-3.88-12.971-11.375-12.971-4.408 0-7.935 1.879-10.58 4.652-1.588 1.61-2.558 3.578-2.91 5.814l-2.028 11.987h-.088zM1273.24 176.235h-15.077c-3.439 0-5.996-3.131-5.379-6.53l7.495-42.76c.617-3.399-2.028-6.53-5.378-6.53-3.44 0-5.996-3.13-5.379-6.53l1.675-9.661a5.426 5.426 0 0 1 5.379-4.562h3.88c2.645 0 4.937-1.968 5.378-4.652l1.94-11.808c.44-2.684 2.733-4.652 5.378-4.652h15.078c3.35 0 5.996 3.131 5.378 6.441l-1.322 8.14c-.53 3.4 2.028 6.441 5.378 6.441h1.764c3.439 0 5.996 3.131 5.378 6.53l-1.675 9.662a5.426 5.426 0 0 1-5.378 4.562h-5.555c-2.646 0-4.938 1.968-5.379 4.562l-8.112 46.606a5.426 5.426 0 0 1-5.378 4.562l-.089.179zM886.012 93.213h-7.583c-3.086 0-5.731 2.147-6.437 5.188l-1.146 5.01c0 .536-.176 1.162-.353 1.789v.536c-1.322 4.563-4.32 6.262-8.288 6.71l1.675-9.393c.618-3.578-2.116-6.799-5.643-6.799h-14.724c-2.822 0-5.115 2.058-5.644 4.83l-11.198 64.945c-.617 3.578 2.117 6.798 5.644 6.798h14.724a5.718 5.718 0 0 0 5.643-4.83l5.996-34.977 1.146-6.351c2.734-5.815 12.61-7.604 19.487-8.23v-.179l4.761-.268c2.91-.18 5.379-2.326 6.084-5.189l2.469-11.36c.882-4.115-2.205-8.051-6.437-8.051l-.176-.18zM1108 98.486c-8.2 0-17.546 1.61-24.247 4.115-2.117.805-3.616 2.773-4.056 5.01l-1.147 6.44c-.793 4.742 3.44 8.678 8.112 7.604 3.88-.984 8.024-1.431 12.433-1.431 7.935 0 12.608 2.236 13.314 6.798 0 4.205-5.82 3.668-11.11 2.237l.705.268c-2.292-.447-4.85-.805-7.583-.805-16.576 0-31.83 9.661-31.83 26.836 0 7.157 3.527 13.955 9.523 17.712 12.961 8.32 27.862 3.579 32.976-.715l-.705 3.936h12.168c7.847 0 14.548-5.725 15.87-13.508l5.556-32.382c.353-2.684.705-5.278.705-7.872 0-16.37-11.11-24.511-30.508-24.511l-.176.268zm.176 55.283c-.264 1.342-.881 2.684-1.851 3.578-2.38 2.058-5.82 3.131-9.7 3.131-4.672 0-9.434-2.236-9.434-6.44 0-5.994 6.349-8.499 11.375-8.499 2.645 0 4.85.537 6.613 1.521 2.292 1.253 3.438 4.115 2.91 6.71h.087zM1220.355 98.218h-7.583c-3.086 0-5.731 2.147-6.437 5.188l-1.146 5.01c0 .537-.176 1.163-.353 1.7v.536c-1.322 4.562-4.32 6.262-8.288 6.71l1.675-9.393c.617-3.579-2.116-6.799-5.643-6.799h-14.725c-2.821 0-5.114 2.057-5.643 4.83l-11.198 64.945c-.617 3.578 2.116 6.798 5.643 6.798h14.725a5.718 5.718 0 0 0 5.643-4.83l5.996-34.977 1.146-6.351c2.734-5.815 12.609-7.604 19.486-8.23v-.18l4.762-.268c2.91-.178 5.378-2.325 6.084-5.188l2.469-11.36c.881-4.116-2.205-8.052-6.437-8.052l-.176-.089zM1473.565 144.287c-8.112 0-8.64 12.345-.617 12.882 3.086.178 10.493 0 14.196-.448 2.204-.268 4.232-.984 6.437-1.431 4.144-.984 8.023 2.773 7.23 7.156l-1.235 6.978c-.352 2.057-1.675 3.757-3.527 4.562-6.524 2.952-14.46 4.204-23.013 4.204-22.837 0-36.768-13.597-36.768-34.53 0-24.689 17.106-45.442 42.94-45.442 19.663 0 30.332 12.255 30.332 31.846v3.22c-.353 6.262-5.555 11.093-11.639 11.093h-24.248l-.088-.09zm-2.557-14.85h15.519c6.436 0 3.791-10.913-8.818-10.913-3.88 0-6.965 1.52-9.434 4.026-2.469 2.504-.794 6.798 2.733 6.798v.09zM1594.032 98.218h-7.583c-3.086 0-5.731 2.147-6.437 5.188l-1.146 5.01c0 .536-.176 1.163-.353 1.789v.537c-1.322 4.562-4.32 6.261-8.288 6.709l1.675-9.393c.618-3.578-2.116-6.799-5.643-6.799h-14.724c-2.822 0-5.114 2.058-5.644 4.83l-11.198 64.945c-.617 3.578 2.117 6.799 5.644 6.799h14.724a5.718 5.718 0 0 0 5.643-4.831l5.996-34.977 1.146-6.351c2.734-5.815 12.61-7.604 19.487-8.23v-.179l4.761-.268c2.91-.18 5.379-2.326 6.084-5.189l2.469-11.36c.881-4.115-2.205-8.051-6.437-8.051l-.176-.18zM1345.028 99.918h14.99c3.438 0 6.083 3.22 5.466 6.62 4.673-4.742 11.904-8.32 20.985-8.32 14.46 0 23.014 9.035 23.014 22.632 0 1.879-.177 3.936-.53 6.083l-7.759 44.817a5.528 5.528 0 0 1-5.467 4.651h-15.077c-3.439 0-6.084-3.13-5.467-6.62l6.437-37.123c.176-1.342.353-2.057.353-2.863 0-4.74-2.646-7.961-8.377-7.961-4.761 0-9.434 2.952-11.727 7.604-.264.447-.44 1.073-.529 1.61l-7.142 40.791a5.528 5.528 0 0 1-5.467 4.652h-15.077c-3.439 0-6.084-3.131-5.467-6.62l11.286-65.302a5.528 5.528 0 0 1 5.467-4.651h.088z"/></svg>